<svg width="14" height="15" viewBox="0 0 14 15" fill="none" xmlns="http://www.w3.org/2000/svg">
<path d="M0.0200001 15V0.639999H0.56C1.64 0.639999 2.74 0.726666 3.86 0.899999C4.99333 1.06 6.13333 1.32 7.28 1.68C8.42667 2.04 9.48 2.31333 10.44 2.5C11.4 2.67333 12.26 2.76667 13.02 2.78V11.7H12.14C11.62 11.7 10.9867 11.6333 10.24 11.5C9.50667 11.3533 8.64667 11.1533 7.66 10.9C6.67333 10.6333 5.73333 10.4333 4.84 10.3C3.96 10.1667 3.12667 10.1 2.34 10.1C2.19333 10.1 2.04667 10.1067 1.9 10.12C1.76667 10.12 1.62667 10.1267 1.48 10.14C1.34667 10.14 1.20667 10.1467 1.06 10.16V15H0.0200001ZM11.96 10.64V3.84C11.3067 3.78667 10.5667 3.66 9.74 3.46C8.91333 3.26 7.99333 3 6.98 2.68C5.96667 2.36 4.96667 2.12 3.98 1.96C2.99333 1.78667 2.02 1.7 1.06 1.7V9.1C1.23333 9.07333 1.45333 9.05333 1.72 9.04C1.98667 9.02667 2.30667 9.02 2.68 9.02C3.4 9.02 4.18667 9.09333 5.04 9.24C5.90667 9.37333 6.84 9.57333 7.84 9.84C8.90667 10.12 9.76 10.3267 10.4 10.46C11.04 10.58 11.56 10.64 11.96 10.64Z" fill="black"/>
</svg>
